# xmcd
#
# Track frame offsets:
#	150
#	18386
#	50479
#
# Disc length: 1174 seconds
#
# Revision: 1
# Processed by: cddbd v1.5.2PL0 Copyright (c) Steve Scherf et al.
# Submitted via: EasyCDDAExtractor 2010.6.0.0
#
DISCID=1d049403
DTITLE=Lemon Jelly - Nice Weather For Ducks - Single
DYEAR=2002
DGENRE=Electronica/Dance
TTITLE0=Nice Weather For Ducks (Radio Edit)
TTITLE1=Soft
TTITLE2=Space Walk - Video
EXTD=YEAR: 2003
EXTT0=
EXTT1=
EXTT2=
PLAYORDER=
